<?xml version="1.0" encoding="UTF-8"?>
<svg id="Icons" xmlns="http://www.w3.org/2000/svg" version="1.1" viewBox="0 0 3000 1000">
  <!-- Generator: Adobe Illustrator 30.1.0, SVG Export Plug-In . SVG Version: 2.1.1 Build 136)  -->
  <defs>
    <style>
      .st0 {
        fill: #1A1A1A;
      }

      .st1 {
        fill: #52B5CB;
      }
    </style>
  </defs>
  <path class="st0" d="M914.77,754.05c-32.7-8.14-56.35-13.87-70.93-17.19-58.95-13.43-119.02-22.4-180.22-26.89-24.85-1.84-53.58-3.61-86.24-5.29-2.81-.16-5.09-2.2-5.57-4.97-5.73-32.98-7.21-158.86-7.21-158.86,0-1.88,63.16-60.87,68.53-62.88,25.01-9.26,54.62-18.88,56.15-23.52.6-2.16-1.24-4.25-3.49-3.89l-41.16,6.49c-1.08.16-1.8-1.08-1.08-1.88l36.27-42.16c2.2-2.52,2.65-6.13,1.2-9.14l-.84-1.68c-1.48-2.89-5.33-3.49-7.57-1.16l-105.48,109.41c-1.64,1.72-4.57.6-4.65-1.8-.92-31.46-1.24-57.99-.92-79.67.2-11.22,1.08-16.75,8.22-25.33,8.7-10.46,22.48-27.89,41.36-52.34,4.21-5.41,6.89-11.38,8.06-17.91,1.08-5.93-4.65-10.82-8.94-7.61-.8.6-2.16,2.12-4.05,4.57-20.2,26.01-34.46,43.96-42.76,53.82-.72.88-2.16.36-2.12-.76.48-20.72.48-46.49-.04-77.39-.08-5.25-1.6-9.58-4.61-12.9-2.08-2.28-5.85-1.36-6.65,1.6-2.28,8.54-3.49,17.91-3.61,28.09-.76,59.79-1.2,103.23-1.24,130.37,0,1.24-1.48,1.84-2.36,1-31.3-29.9-58.75-63.24-90.65-101.23-2.48-2.97-7.29-1.04-7.05,2.81.56,9.78,4.49,19,11.82,27.69,14.91,17.67,25.61,30.5,32.06,38.43.72.88.08,2.16-1.04,2.16-16.71-.36-30.26-.44-40.6-.24-2.44.04-4.25.44-5.49,1.12-2.81,1.6-2.97,5.65-.32,7.73,13.38,10.7,41.56,11.06,58.55,11.78,12.5.56,41.24,38.27,41.32,43.72.36,26.93-1.88,116.5-1.92,118.14-.2,26.73-1.92,51.42-5.09,74.02-1.08,7.98-3.21,14.91-6.29,20.76-1.44,2.72-4.21,4.49-7.29,4.61-44.84,1.88-72.1,3.09-81.67,3.61-18.96,1.04-48.93,4.45-89.93,10.26-33.78,4.77-88.97,16.35-165.59,34.79-2.73.64-4.09,3.77-2.68,6.21l3.53,6.09c1.32,2.28,3.93,3.49,6.53,2.97,16.23-3.21,34.95-7.05,56.15-11.58,89.09-19,178.7-29.01,268.83-30.02.8,0,1.4.64,1.36,1.4-.04,1-.6,2.08-1.6,3.33-24.33,28.53-61.32,54.82-100.47,57.07-9.5.52-26.21,1.6-50.17,3.17-44.24,2.93-85.08,16.99-124.92,35.27-2.04.96-2.16,3.77-.24,4.89l9.58,5.53c2.56,1.48,5.69,1.68,8.42.48,45-19.48,90.69-30.94,139.7-30.14,1.48.04,2.24.8,2.24,2.28-.04.92-.36,1.56-1.04,2-23.68,15.35-44.92,29.17-58.15,48.13-10.02,14.35-16.07,22.6-18.15,24.73-1.68,1.72-1.28,4.53.8,5.73l4.73,2.72c2.52,1.44,5.73.84,7.53-1.4,14.99-18.6,24.05-29.26,27.17-31.94,36.35-31.3,62.96-53.22,103.76-65.52.56-.16,1.08.36.92.96-4.57,15.51-10.42,29.13-17.51,40.88-11.02,18.15-29.58,30.86-38.27,50.05-3.93,8.7-7.37,19.36-10.34,32.06-.44,1.84.4,3.77,2,4.69l6.85,3.97c1.8,1.04,4.13.2,4.85-1.76l10.78-29.5c1.92-5.17,4.69-9.94,8.22-14.15,8.46-10.74,21.48-24.65,28.93-37.79,8.06-14.19,14.27-29.82,18.6-46.93,4.49-17.71,19.04-25.57,36.99-39.96.48-.4.92-.84,1.32-1.32l29.5-34.63c1.32-1.52,3.81-.76,4.05,1.24,2.4,20.24,4.01,77.87-12.62,92.41-10.94,9.58-21.56,19-31.9,28.17-31.66,28.17-28.17,61.11-28.33,99.95,0,3.29,2.36,6.05,5.57,6.61,3.25.52,6.37-1.36,7.41-4.45,4.57-13.55,2.56-23.88,3.93-45.53,1.52-23.84,11.74-38.79,28.05-52.02,12.5-10.14,21.96-17.43,28.37-21.92,1-.72,2.36-.28,2.77.88,4.85,13.47,10.3,24.09,16.39,31.86,13.02,16.63,29.5,33.94,33.5,55.42,2.89,15.43,4.01,26.29,3.33,32.62-.24,2.24,1.56,4.17,3.81,4.09l6.21-.24c3.25-.12,5.69-2.89,5.49-6.13-1.56-23.36-4.01-39.03-7.33-47.01-5.73-13.79-11.34-23.56-16.87-29.3-26.89-27.89-36.79-61.36-29.7-100.43.44-2.44,3.29-3.53,5.25-2,18.8,14.87,36.55,27.73,53.3,38.59,6.57,4.29,12.22,10.78,14.71,17.59,9.9,27.29,21.64,54.9,35.31,82.92,3.37,6.93,7.37,13.75,12.06,20.44,2.12,3.05,6.09,4.17,9.5,2.69l.88-.4c3.17-1.4,4.29-5.33,2.36-8.22-6.33-9.42-12.26-20.6-17.79-33.5-8.22-19.2-16.63-39.71-25.25-61.48-.24-.64.44-1.24,1.04-.92,27.41,14.55,44.44,23.44,51.06,26.69,24.73,11.98,40.92,26.73,57.67,45.13,2,2.2,5.21,2.85,7.93,1.56l.36-.16c2.52-1.2,3.45-4.33,1.96-6.69-13.31-21.52-25.13-38.71-45.33-48.73-22.96-11.34-42.92-20.76-59.83-28.21-3.57-1.56-7.21-4.13-10.9-7.61-.88-.84-.28-2.28.92-2.28,61.76.6,122.03,12.5,180.78,35.71,3.41,1.36,7.29.36,9.66-2.4l4.73-5.45c1.6-1.88.84-4.81-1.52-5.61-21.72-7.61-38.15-13.06-49.29-16.39-50.94-15.27-101.71-23.8-152.33-25.61-17.79-.6-26.05-4.21-40.6-13.91-16.35-10.94-28.81-25.09-37.43-42.44-.4-.8.2-1.68,1.08-1.64,36.59,2.28,68.57,4.49,96.02,6.61,77.95,6.01,154.77,19.16,230.51,39.39,2.6.72,5.33-.72,6.25-3.25l3.29-9.22c.84-2.44-.56-5.05-3.05-5.69Z"/>
  <g>
    <path d="M553.48,624.97c-1.66,0-3.31-.37-4.84-1.11l-287.89-139.12c-3.85-1.86-6.29-5.75-6.29-10.03V57.37c0-3.83,1.97-7.4,5.22-9.43,3.25-2.04,7.31-2.26,10.76-.59l283.05,136.77L836.53,47.34c3.45-1.67,7.52-1.44,10.76.59,3.25,2.04,5.22,5.6,5.22,9.43v417.35c0,4.27-2.44,8.17-6.29,10.03l-287.89,139.12c-1.53.74-3.19,1.11-4.84,1.11ZM276.73,467.73l276.76,133.74,276.76-133.74V75.12l-271.91,131.39c-3.06,1.48-6.63,1.48-9.69,0L276.73,75.12v392.61Z"/>
    <path d="M553.48,633.97c-.92,0-1.84-.11-2.74-.34l-364.67-92.47c-4.94-1.25-8.4-5.7-8.4-10.79V113.01c0-6.15,4.99-11.14,11.14-11.14s11.14,4.99,11.14,11.14v408.68l353.53,89.65,353.53-89.65V113.01c0-6.15,4.99-11.14,11.14-11.14s11.14,4.99,11.14,11.14v417.35c0,5.1-3.46,9.54-8.4,10.79l-364.67,92.47c-.9.23-1.82.34-2.74.34Z"/>
    <path d="M553.48,648.97c-.43,0-.87-.03-1.3-.08l-441.44-51.82c-5.61-.66-9.84-5.41-9.84-11.06V168.66c0-6.15,4.99-11.14,11.14-11.14s11.14,4.99,11.14,11.14v407.44l430.3,50.52,430.3-50.52V168.66c0-6.15,4.99-11.14,11.14-11.14s11.14,4.99,11.14,11.14v417.35c0,5.65-4.23,10.4-9.84,11.06l-441.44,51.82c-.43.05-.86.08-1.3.08Z"/>
    <path d="M553.48,569.32c-6.15,0-11.14-4.99-11.14-11.14V242.61c0-6.15,4.99-11.14,11.14-11.14s11.14,4.99,11.14,11.14v315.58c0,6.15-4.99,11.14-11.14,11.14Z"/>
  </g>
  <g>
    <path class="st1" d="M1238.61,937.5c1.8-1.86,2.7-4.16,2.7-6.89V116.05c0-2.86-.9-5.19-2.7-6.99-1.8-1.79-4.13-2.7-6.98-2.7s-5.03.91-6.89,2.7c-1.86,1.8-2.78,4.13-2.78,6.99v814.56c0,2.73.92,5.03,2.78,6.89s4.16,2.8,6.89,2.8,5.17-.93,6.98-2.8"/>
    <path d="M2214.63,903.22l-5.96-12.81h-58.36l-5.95,12.81h70.27ZM2140.56,927.63c1.34-.8,2.35-1.99,3.05-3.57l37.52-91.71h-4.17l36.92,91.71c.6,1.48,1.57,2.65,2.91,3.49,1.34.85,2.76,1.26,4.24,1.26,2.88,0,5.04-1.12,6.47-3.35,1.45-2.23,1.62-4.75.53-7.52l-41.98-100.2c-1.3-3.47-3.73-5.21-7.3-5.21-3.38,0-5.81,1.74-7.3,5.21l-41.84,99.89c-1.2,2.69-1.04,5.21.44,7.6,1.48,2.38,3.62,3.57,6.4,3.57,1.39,0,2.76-.39,4.1-1.19M2049.59,926.59c1.43-1.48,2.16-3.32,2.16-5.51v-100.8c0-2.28-.72-4.14-2.16-5.58-1.43-1.43-3.3-2.16-5.58-2.16s-4.02.72-5.51,2.16c-1.5,1.43-2.24,3.3-2.24,5.58v100.8c0,2.18.75,4.02,2.24,5.51,1.48,1.48,3.32,2.23,5.51,2.23s4.14-.75,5.58-2.23M1875.63,826.24h19.2c8.34,0,15.71,1.89,22.11,5.65,6.4,3.78,11.44,8.99,15.12,15.63,3.67,6.66,5.51,14.35,5.51,23.08s-1.84,16.31-5.51,23c-3.68,6.71-8.72,11.97-15.12,15.79-6.4,3.81-13.77,5.73-22.11,5.73h-19.2v-88.88ZM1894.83,928.82c8.53,0,16.31-1.41,23.3-4.24,7-2.83,13.08-6.84,18.24-12.05,5.16-5.21,9.13-11.37,11.91-18.47,2.78-7.1,4.17-14.91,4.17-23.46s-1.39-16.32-4.17-23.37c-2.77-7.05-6.74-13.18-11.91-18.39-5.16-5.21-11.24-9.22-18.24-12.05-6.99-2.83-14.76-4.24-23.3-4.24h-26.95c-2.18,0-4.02.72-5.51,2.16s-2.23,3.3-2.23,5.58v100.8c0,2.18.75,4.02,2.23,5.51s3.32,2.23,5.51,2.23h26.95ZM1771.41,928.82c2.28,0,4.12-.67,5.51-2.01,1.4-1.34,2.08-3.1,2.08-5.28s-.69-3.76-2.08-5.06c-1.39-1.29-3.22-1.94-5.51-1.94h-59.55v-37.21h42.73c2.28,0,4.12-.67,5.51-2.01,1.39-1.34,2.08-3.05,2.08-5.14s-.7-3.8-2.08-5.14c-1.39-1.34-3.22-2.01-5.51-2.01h-42.73v-36.17h59.55c2.28,0,4.12-.65,5.51-1.94,1.4-1.29,2.08-2.98,2.08-5.06s-.69-3.95-2.08-5.28c-1.39-1.35-3.22-2.01-5.51-2.01h-67.29c-2.19,0-4.02.72-5.52,2.16-1.48,1.43-2.23,3.3-2.23,5.58v100.8c0,2.18.75,4.02,2.23,5.51,1.5,1.48,3.32,2.23,5.52,2.23h67.29ZM1503.88,926.59c1.48-1.48,2.23-3.32,2.23-5.51v-79.35l-2.98.74,38.56,77.27c1.5,3.08,3.87,4.62,7.15,4.62,2.78,0,5.01-1.29,6.69-3.87l39.01-79.5-2.98.75v79.35c0,2.18.75,4.02,2.23,5.51,1.5,1.48,3.32,2.23,5.51,2.23s3.9-.75,5.44-2.23c1.53-1.48,2.31-3.32,2.31-5.51v-100.8c0-2.28-.75-4.14-2.23-5.58-1.5-1.43-3.34-2.16-5.52-2.16-2.97,0-5.26,1.39-6.84,4.17l-45.42,93.34h4.77l-46.6-93.34c-1.58-2.78-3.86-4.17-6.84-4.17-2.18,0-4.02.72-5.52,2.16-1.48,1.43-2.23,3.3-2.23,5.58v100.8c0,2.18.75,4.02,2.23,5.51,1.5,1.48,3.34,2.23,5.52,2.23s4.02-.75,5.51-2.23"/>
    <path d="M2776.16,492.38h43.22c18.76,0,35.34,4.24,49.74,12.73,14.41,8.48,25.74,20.22,34,35.18,8.26,14.96,12.4,32.27,12.4,51.91s-4.13,36.69-12.4,51.75c-8.26,15.08-19.59,26.93-34,35.51-14.41,8.61-30.98,12.9-49.74,12.9h-43.22v-199.98ZM2819.38,723.18c19.2,0,36.67-3.19,52.43-9.55,15.74-6.36,29.41-15.41,41.03-27.13,11.61-11.72,20.55-25.56,26.8-41.54,6.25-15.96,9.38-33.55,9.38-52.76s-3.13-36.72-9.38-52.59c-6.25-15.85-15.19-29.65-26.8-41.37-11.61-11.72-25.28-20.77-41.03-27.13-15.76-6.36-33.23-9.55-52.43-9.55h-60.63c-4.92,0-9.05,1.63-12.4,4.87-3.35,3.24-5.03,7.42-5.03,12.56v226.78c0,4.92,1.68,9.05,5.03,12.4,3.35,3.35,7.48,5.03,12.4,5.03h60.63ZM2675.67,723.18c5.14,0,9.27-1.51,12.4-4.52,3.13-3.02,4.7-6.98,4.7-11.89s-1.57-8.48-4.7-11.39c-3.13-2.89-7.26-4.35-12.4-4.35h-133.99v-83.74h96.14c5.14,0,9.27-1.51,12.4-4.52,3.13-3.02,4.7-6.87,4.7-11.56s-1.57-8.53-4.7-11.55c-3.13-3.02-7.26-4.52-12.4-4.52h-96.14v-81.4h133.99c5.14,0,9.27-1.45,12.4-4.35,3.13-2.91,4.7-6.69,4.7-11.39s-1.57-8.88-4.7-11.89c-3.13-3.02-7.26-4.52-12.4-4.52h-151.41c-4.9,0-9.04,1.63-12.38,4.87-3.36,3.24-5.03,7.42-5.03,12.56v226.78c0,4.92,1.67,9.05,5.03,12.4,3.35,3.35,7.48,5.03,12.38,5.03h151.41ZM2452.25,493.71c4.68,0,8.53-1.51,11.55-4.52s4.52-6.87,4.52-11.55-1.51-8.55-4.52-11.56c-3.02-3.02-6.87-4.52-11.55-4.52h-179.22c-4.68,0-8.55,1.51-11.55,4.52-3.02,3.02-4.52,6.87-4.52,11.56s1.51,8.53,4.52,11.55c3,3.02,6.87,4.52,11.55,4.52h179.22ZM2375.2,718.15c3.35-3.35,5.03-7.48,5.03-12.4v-244.21h-34.85v244.21c0,4.92,1.68,9.05,5.03,12.4,3.35,3.35,7.48,5.03,12.4,5.03s9.05-1.68,12.4-5.03M2077.9,687.17c-12.18-5.25-22.67-12.51-31.49-21.78-8.83-9.27-15.69-20.16-20.6-32.66-4.92-12.51-7.37-26.01-7.37-40.54s2.45-28.02,7.37-40.52c4.9-12.51,11.77-23.39,20.6-32.66,8.82-9.27,19.31-16.47,31.49-21.6,12.18-5.14,25.52-7.71,40.03-7.71s27.86,2.57,40.03,7.71c12.16,5.14,22.72,12.33,31.65,21.6,8.94,9.27,15.8,20.16,20.61,32.66,4.79,12.51,7.2,26.02,7.2,40.52s-2.4,28.03-7.2,40.54c-4.81,12.51-11.67,23.39-20.61,32.66-8.93,9.27-19.48,16.53-31.65,21.78-12.18,5.25-25.52,7.87-40.03,7.87s-27.86-2.62-40.03-7.87M2171.7,716.65c16.18-6.58,30.2-15.85,42.04-27.81,11.83-11.94,20.98-26.13,27.47-42.53,6.47-16.42,9.71-34.45,9.71-54.11s-3.24-37.62-9.71-53.92c-6.49-16.31-15.63-30.43-27.47-42.37-11.84-11.94-25.86-21.21-42.04-27.81-16.2-6.58-34.12-9.88-53.77-9.88s-37.63,3.3-53.94,9.88c-16.31,6.6-30.31,15.87-42.04,27.81-11.72,11.94-20.82,26.07-27.29,42.37-6.49,16.31-9.71,34.28-9.71,53.92s3.22,37.69,9.71,54.11c6.47,16.41,15.57,30.59,27.29,42.53,11.73,11.95,25.74,21.22,42.04,27.81,16.31,6.58,34.28,9.88,53.94,9.88s37.57-3.3,53.77-9.88M1776.08,687.17c-12.18-5.25-22.67-12.51-31.49-21.78-8.83-9.27-15.69-20.16-20.6-32.66-4.92-12.51-7.37-26.01-7.37-40.54s2.45-28.02,7.37-40.52c4.9-12.51,11.77-23.39,20.6-32.66,8.82-9.27,19.31-16.47,31.49-21.6,12.18-5.14,25.52-7.71,40.03-7.71s27.86,2.57,40.03,7.71c12.16,5.14,22.72,12.33,31.66,21.6,8.93,9.27,15.79,20.16,20.6,32.66,4.79,12.51,7.2,26.02,7.2,40.52s-2.4,28.03-7.2,40.54c-4.81,12.51-11.67,23.39-20.6,32.66-8.94,9.27-19.5,16.53-31.66,21.78-12.18,5.25-25.52,7.87-40.03,7.87s-27.86-2.62-40.03-7.87M1869.88,716.65c16.18-6.58,30.2-15.85,42.04-27.81,11.83-11.94,20.98-26.13,27.47-42.53,6.47-16.42,9.71-34.45,9.71-54.11s-3.24-37.62-9.71-53.92c-6.49-16.31-15.63-30.43-27.47-42.37-11.84-11.94-25.86-21.21-42.04-27.81-16.2-6.58-34.12-9.88-53.77-9.88s-37.63,3.3-53.94,9.88c-16.3,6.6-30.31,15.87-42.03,27.81-11.73,11.94-20.83,26.07-27.31,42.37-6.49,16.31-9.71,34.28-9.71,53.92s3.22,37.69,9.71,54.11c6.47,16.41,15.57,30.59,27.31,42.53,11.72,11.95,25.74,21.22,42.03,27.81,16.31,6.58,34.28,9.88,53.94,9.88s37.57-3.3,53.77-9.88M1518.32,493.71h42.88c10.27,0,19.31,2.12,27.13,6.36,7.82,4.24,13.95,10.16,18.43,17.75,4.46,7.6,6.69,16.31,6.69,26.13,0,8.94-2.23,16.92-6.69,23.96-4.48,7.03-10.61,12.51-18.43,16.41-7.82,3.91-16.86,5.86-27.13,5.86h-42.88v-96.47ZM1654.99,714.64c2.89-5.69,2.34-11.77-1.68-18.26l-54.93-88.44-33.84,9.72,60.3,97.15c1.79,2.91,3.96,5.03,6.54,6.36,2.56,1.34,5.41,2.01,8.55,2.01,7.14,0,12.16-2.84,15.07-8.55M1513.46,718.15c3.24-3.35,4.86-7.48,4.86-12.4v-83.41h42.88c16.75,0,31.6-3.35,44.56-10.04,12.95-6.71,23.05-15.96,30.31-27.81,7.26-11.83,10.89-25.34,10.89-40.54,0-16.3-3.63-30.59-10.89-42.88-7.26-12.27-17.36-21.94-30.31-28.97-12.96-7.04-27.81-10.56-44.56-10.56h-60.3c-4.9,0-9.04,1.63-12.38,4.87-3.36,3.24-5.03,7.42-5.03,12.56v226.78c0,4.92,1.67,9.05,5.03,12.4,3.35,3.35,7.48,5.03,12.38,5.03s9.33-1.68,12.57-5.03"/>
    <path d="M2145.06,140.13c4.7,0,8.55-1.51,11.56-4.52,3.02-3.02,4.52-6.87,4.52-11.56s-1.51-8.55-4.52-11.55c-3.02-3.02-6.87-4.52-11.56-4.52h-179.21c-4.7,0-8.55,1.51-11.56,4.52-3.02,3-4.52,6.87-4.52,11.55s1.51,8.55,4.52,11.56c3.02,3.02,6.87,4.52,11.56,4.52h179.21ZM2068.02,364.56c3.36-3.35,5.03-7.48,5.03-12.38V107.97h-34.83v244.21c0,4.9,1.67,9.04,5.03,12.38,3.35,3.36,7.48,5.03,12.38,5.03s9.05-1.67,12.4-5.03M1912.59,369.58c5.13,0,9.26-1.51,12.4-4.52,3.11-3.02,4.68-6.98,4.68-11.89s-1.57-8.48-4.68-11.38c-3.14-2.91-7.27-4.36-12.4-4.36h-134v-83.74h96.14c5.14,0,9.27-1.51,12.4-4.52,3.13-3,4.7-6.87,4.7-11.55s-1.57-8.55-4.7-11.56c-3.13-3.02-7.26-4.52-12.4-4.52h-96.14v-81.39h134c5.13,0,9.26-1.46,12.4-4.36,3.11-2.89,4.68-6.69,4.68-11.39s-1.57-8.88-4.68-11.88c-3.14-3.02-7.27-4.52-12.4-4.52h-151.41c-4.92,0-9.05,1.62-12.4,4.86-3.35,3.24-5.03,7.43-5.03,12.56v226.79c0,4.9,1.68,9.04,5.03,12.38,3.35,3.36,7.48,5.03,12.4,5.03h151.41ZM1688.15,251.34c0-5.14-1.57-9.32-4.68-12.57-3.14-3.22-7.27-4.86-12.4-4.86h-62.64c-4.92,0-9.05,1.46-12.4,4.35-3.35,2.91-5.03,6.6-5.03,11.06s1.68,8.15,5.03,11.06c3.35,2.91,7.48,4.35,12.4,4.35h46.22v59.96l33.5,6.71v-80.07ZM1644.27,365.73c13.84-4.79,26.68-12.11,38.52-21.95,2.01-1.78,3.4-3.73,4.18-5.86.78-2.12,1.18-4.29,1.18-6.52,0-4.92-1.34-8.77-4.02-11.56-2.67-2.78-5.97-4.35-9.88-4.68-3.91-.34-7.87.94-11.89,3.85-9.38,6.93-19.15,12.33-29.3,16.25-10.16,3.91-20.94,5.86-32.33,5.86-13.18,0-25.56-2.62-37.18-7.87-11.62-5.25-21.84-12.57-30.65-21.95-8.83-9.38-15.69-20.26-20.6-32.65-4.92-12.4-7.37-25.74-7.37-40.03s2.45-27.31,7.37-39.7c4.9-12.4,11.77-23.27,20.6-32.65,8.82-9.38,19.03-16.75,30.65-22.12,11.61-5.36,24-8.03,37.18-8.03,14.52,0,26.19,1.9,35.01,5.69,8.83,3.8,17.36,9.27,25.63,16.42,3.8,3.13,7.87,4.57,12.24,4.35,4.35-.22,8.03-1.79,11.05-4.68,3.02-2.91,4.52-6.49,4.52-10.73,0-2.01-.17-3.74-.5-5.19-.33-1.45-1.01-2.91-2.01-4.35-1.01-1.46-2.4-2.86-4.18-4.19-12.52-10.26-24.96-17.63-37.36-22.11-12.4-4.46-27.18-6.69-44.39-6.69-18.31,0-35.29,3.46-50.91,10.37-15.65,6.93-29.32,16.48-41.04,28.64-11.72,12.18-20.88,26.36-27.48,42.55-6.58,16.2-9.87,33.67-9.87,52.43s3.29,36.62,9.87,52.92c6.6,16.31,15.76,30.54,27.48,42.72,11.72,12.18,25.45,21.67,41.2,28.47,15.74,6.82,32.66,10.21,50.75,10.21,15.19,0,29.7-2.4,43.55-7.2"/>
  </g>
</svg>