<?xml version="1.0" encoding="UTF-8"?>
<svg id="b" data-name="Icons" xmlns="http://www.w3.org/2000/svg" viewBox="0 0 1956.52 1000">
  <g>
    <path d="M1046.49,168.8c1.44-1.3,2.77-2.66,4.05-4.06,1.1,1.55,2.34,2.99,3.72,4.31,3.63,3.45,8.02,6.1,13.18,7.95,5.16,1.84,10.68,2.76,16.55,2.76,6.29,0,11.98-.64,17.06-1.91,5.09-1.28,9.62-2.95,13.59-5.03,3.97-2.08,7.42-4.44,10.37-7.09,2.94-2.65,5.45-5.35,7.53-8.1,2.07-2.75,3.75-5.47,5.02-8.15,1.26-2.68,2.25-5.06,2.95-7.14.57-1.81.28-3.37-.87-4.68-1.15-1.3-2.64-2.16-4.45-2.57-1.81-.4-3.69-.21-5.63.56-1.94.77-3.41,2.3-4.39,4.58-1.31,3.15-2.99,6.27-5.05,9.35-2.05,3.08-4.53,5.86-7.44,8.35-2.91,2.48-6.3,4.48-10.17,5.98-3.87,1.51-8.32,2.27-13.35,2.27-3.36,0-6.25-.34-8.69-1.01-2.44-.67-4.53-1.57-6.25-2.71-1.73-1.14-3.15-2.5-4.25-4.07-1.11-1.58-1.92-3.23-2.45-4.99,6.46-1.47,12.31-3.63,17.55-6.48,5.23-2.85,9.78-6.07,13.64-9.66,3.86-3.58,6.96-7.39,9.3-11.41,2.35-4.02,3.86-7.94,4.53-11.77.54-3.08.52-5.9-.08-8.45-.6-2.55-1.74-4.74-3.43-6.59-1.69-1.84-3.89-3.27-6.61-4.28-2.71-1-5.87-1.5-9.48-1.5-4.95,0-9.97,1.15-15.07,3.47-5.1,2.31-9.86,5.51-14.27,9.61s-8.24,8.93-11.49,14.54c-3.25,5.6-5.45,11.65-6.6,18.16-.67,3.82-.84,7.39-.53,10.72-.25.5-.5.99-.76,1.5-1.33,2.58-2.89,4.98-4.66,7.19s-3.74,4.06-5.88,5.53c-2.15,1.47-4.52,2.21-7.12,2.21-1.68,0-2.88-.41-3.62-1.21-.74-.8-1.22-1.74-1.46-2.82-.23-1.07-.3-2.13-.19-3.17.1-1.04.19-1.79.27-2.26l7.52-42.65c.41-2.35.52-4.76.33-7.24-.19-2.48-.91-4.72-2.14-6.74s-3.12-3.65-5.66-4.93c-2.54-1.27-5.95-1.91-10.22-1.91-3.19,0-6.23.51-9.14,1.56-2.91,1.04-5.72,2.48-8.43,4.33-2.71,1.84-5.32,4-7.81,6.48-2.49,2.49-4.88,5.17-7.14,8.05l11.92-67.59c.43-2.49-.43-4.61-2.58-6.39-2.16-1.77-5.38-2.66-9.65-2.66-.92,0-1.87.05-2.86.15-.98.1-1.91.25-2.78.45-.88.2-1.59.44-2.14.71s-.87.6-.93,1c-.06.34.03.65.27.95.24.3.46.71.67,1.21.21.5.37,1.19.52,2.06.14.87.08,2.05-.18,3.52l-21.8,123.62c-.34,1.94-.22,3.5.37,4.68.59,1.17,1.44,2.08,2.54,2.72,1.1.63,2.37,1.07,3.79,1.3,1.43.23,2.77.35,4.02.35,1.85,0,3.3-.28,4.37-.85,1.06-.57,1.9-1.28,2.51-2.11.61-.84,1.02-1.78,1.25-2.82.23-1.04.43-2.06.6-3.07l5.31-30.08c1.22-4.09,3.17-8.16,5.86-12.22,2.68-4.06,5.61-7.7,8.78-10.92,3.17-3.21,6.26-5.83,9.3-7.84,3.03-2.01,5.47-3.02,7.32-3.02,1.26,0,2.18.32,2.79.95.6.64,1,1.5,1.18,2.57.19,1.07.2,2.31.03,3.72-.16,1.41-.38,2.92-.67,4.53l-7.37,41.85c-.46,2.62-.42,5.09.13,7.44s1.61,4.39,3.19,6.13c1.58,1.74,3.6,3.14,6.06,4.18,2.46,1.04,5.4,1.56,8.84,1.56,5.53,0,10.53-1.04,15.01-3.12,4.47-2.08,8.45-4.69,11.95-7.84ZM1066.57,140.24c.02-.6.09-1.21.19-1.81.16-1.41.52-3.17,1.06-5.28.54-2.11,1.27-4.34,2.18-6.69.92-2.35,1.98-4.68,3.19-6.99,1.2-2.31,2.57-4.39,4.11-6.24,1.54-1.84,3.23-3.33,5.07-4.47,1.83-1.14,3.8-1.71,5.89-1.71,1.68,0,2.88.63,3.63,1.91.74,1.27.91,3.05.51,5.33-.54,3.09-1.57,6.06-3.08,8.91-1.51,2.85-3.4,5.48-5.67,7.9-2.27,2.41-4.87,4.56-7.8,6.43-2.93,1.88-6.09,3.42-9.49,4.63.12-.67.19-1.31.21-1.91Z"/>
    <path d="M955.29,45.28c1.37-.67,2.57-1.52,3.59-2.56,1.02-1.04,1.86-2.21,2.51-3.52.65-1.3,1.08-2.56,1.3-3.77.14-.8.2-1.61.17-2.42-.03-.8-.13-1.52-.31-2.16-.18-.63-.42-1.17-.72-1.61-.3-.43-.66-.65-1.08-.65-.17,0-.39.08-.67.25-.28.17-.67.36-1.17.56-.49.2-1.12.38-1.86.56-.74.16-1.65.25-2.75.25-1.26,0-3.63-.01-7.09-.05-3.47-.03-7.38-.08-11.73-.15-4.35-.07-8.72-.12-13.12-.15-4.39-.03-8.14-.05-11.24-.05-13.41,0-25.99,1.3-37.72,3.92-11.74,2.62-22.17,6.49-31.28,11.62s-16.65,11.48-22.6,19.06c-5.95,7.57-9.79,16.33-11.54,26.25-.96,5.43-1.01,10.48-.16,15.13.86,4.66,2.14,8.8,3.85,12.43,1.71,3.62,3.65,6.65,5.82,9.1,2.16,2.45,4.08,4.21,5.73,5.28.58.47,1.18.78,1.79.91.6.14,1.24.2,1.92.2,1.51,0,3.06-.38,4.67-1.15,1.6-.77,3.09-1.74,4.47-2.92,1.38-1.17,2.55-2.48,3.52-3.92.97-1.44,1.57-2.84,1.81-4.18.19-1.07.04-1.91-.44-2.51-.48-.6-1.46-.74-2.95-.41-1.44-1.34-2.86-2.88-4.28-4.63-1.41-1.74-2.62-3.76-3.65-6.04-1.03-2.27-1.72-4.84-2.1-7.69-.38-2.85-.25-6.05.37-9.61,1.41-7.98,4.27-14.7,8.58-20.17,4.32-5.47,9.59-9.91,15.81-13.33,6.21-3.42,13.16-5.99,20.85-7.7,7.68-1.71,15.54-2.83,23.6-3.36l-20.06,113.76c-.93,5.23-2.12,9.04-3.58,11.42-1.47,2.38-3.38,3.57-5.73,3.57-.67,0-1.26-.07-1.79-.21-.52-.13-.97-.22-1.34-.25-.37-.03-.68.03-.91.2-.24.17-.42.58-.54,1.26-.18,1.01.18,2.18,1.07,3.52.9,1.34,2.09,2.64,3.58,3.92,1.5,1.27,3.13,2.35,4.9,3.22s3.46,1.3,5.05,1.3c2.09,0,4.12-.47,6.09-1.41,1.97-.94,3.76-2.41,5.37-4.42,1.61-2.01,3.06-4.63,4.34-7.85,1.28-3.22,2.32-7.11,3.12-11.67l20.59-116.78c3.01.07,6.26.14,9.77.2,3.51.07,6.85.14,10.03.21,3.17.06,5.99.12,8.46.15,2.47.03,4.16.05,5.08.05,1.68,0,3.2-.34,4.58-1.01Z"/>
  </g>
  <g>
    <path d="M1552.45,942.15c5.32,0,9.6-1.56,12.84-4.69,3.24-3.12,4.86-7.22,4.86-12.32s-1.62-8.79-4.86-11.8c-3.24-3-7.52-4.51-12.84-4.51h-138.78v-86.74h99.58c5.32,0,9.59-1.56,12.83-4.69,3.24-3.12,4.86-7.11,4.86-11.97s-1.62-8.85-4.86-11.97c-3.24-3.13-7.52-4.68-12.83-4.68h-99.58v-84.31h138.78c5.32,0,9.6-1.5,12.84-4.51,3.24-3,4.86-6.94,4.86-11.8s-1.62-9.19-4.86-12.32c-3.24-3.12-7.52-4.68-12.84-4.68h-156.82c-5.09,0-9.36,1.68-12.83,5.03-3.47,3.35-5.21,7.69-5.21,13.01v234.88c0,5.09,1.74,9.36,5.21,12.83,3.47,3.47,7.74,5.21,12.83,5.21h156.82ZM1288.18,942.15c5.09,0,9.37-1.74,12.84-5.21,3.47-3.47,5.2-7.74,5.2-12.83s-1.73-9.37-5.2-12.84c-3.47-3.47-7.75-5.2-12.84-5.2h-125.59v-216.84c0-5.08-1.73-9.36-5.2-12.83-3.47-3.47-7.75-5.21-12.84-5.21s-9.02,1.74-12.49,5.21c-3.47,3.47-5.2,7.75-5.2,12.83v234.88c0,5.09,1.67,9.36,5.03,12.83,3.35,3.47,7.57,5.21,12.66,5.21h143.63ZM883.58,704.49h64.88c13.18,0,23.99,3.18,32.44,9.54,8.44,6.37,12.66,16.13,12.66,29.32s-4.22,23.02-12.66,29.49c-8.44,6.48-19.25,9.71-32.44,9.71h-64.88v-78.06ZM883.58,815.86h72.16c10.63,0,20,1.68,28.1,5.03,8.09,3.36,14.45,8.27,19.08,14.75,4.62,6.48,6.94,14.69,6.94,24.64,0,10.64-2.32,19.55-6.94,26.71-4.63,7.17-10.99,12.61-19.08,16.3-8.1,3.71-17.47,5.56-28.1,5.56h-72.16v-92.98ZM955.75,942.15c17.35,0,32.72-3.53,46.14-10.58,13.41-7.06,23.88-16.71,31.4-28.97,7.51-12.26,11.27-26.37,11.27-42.33,0-17.57-4.62-31.8-13.87-42.68-9.26-10.87-21.52-18.15-36.78-21.85,10.64-5.32,19.02-12.55,25.15-21.69,6.13-9.14,9.2-19.37,9.2-30.71,0-14.11-3.42-26.6-10.23-37.47-6.83-10.87-16.19-19.37-28.11-25.5-11.91-6.13-25.73-9.2-41.46-9.2h-82.92c-5.09,0-9.37,1.68-12.84,5.03s-5.2,7.69-5.2,13.01v234.88c0,5.09,1.73,9.36,5.2,12.83,3.47,3.47,7.75,5.21,12.84,5.21h90.21ZM745.09,882.47l-13.88-29.84h-136l-13.88,29.84h163.76ZM572.48,939.37c3.13-1.85,5.49-4.62,7.11-8.33l87.43-213.72h-9.71l86.04,213.72c1.39,3.47,3.64,6.19,6.76,8.15,3.13,1.97,6.42,2.95,9.89,2.95,6.71,0,11.74-2.61,15.09-7.81,3.35-5.21,3.76-11.04,1.22-17.52l-97.84-233.49c-3.01-8.09-8.68-12.15-17-12.15-7.87,0-13.53,4.05-17,12.15l-97.49,232.8c-2.78,6.24-2.43,12.15,1.04,17.7,3.47,5.55,8.44,8.33,14.92,8.33,3.24,0,6.42-.92,9.54-2.78M521.27,704.49c4.86,0,8.85-1.56,11.97-4.68,3.12-3.13,4.68-7.11,4.68-11.97s-1.56-8.85-4.68-11.97c-3.13-3.12-7.11-4.68-11.97-4.68h-185.62c-4.86,0-8.85,1.56-11.97,4.68-3.13,3.13-4.69,7.11-4.69,11.97s1.56,8.85,4.69,11.97c3.12,3.12,7.11,4.68,11.97,4.68h185.62ZM441.48,936.94c3.47-3.47,5.2-7.74,5.2-12.83v-252.92h-36.08v252.92c0,5.09,1.73,9.36,5.2,12.83,3.47,3.47,7.74,5.21,12.83,5.21s9.37-1.74,12.84-5.21"/>
    <path d="M1853.35,438.04c0-5.32-1.62-9.66-4.86-13.01-3.24-3.35-7.52-5.03-12.83-5.03h-64.88c-5.09,0-9.36,1.51-12.83,4.51-3.47,3.01-5.21,6.83-5.21,11.45s1.74,8.45,5.21,11.45c3.47,3.01,7.74,4.51,12.83,4.51h47.88v62.1l34.69,6.94v-82.92ZM1807.9,556.52c14.34-4.97,27.63-12.54,39.9-22.72,2.08-1.85,3.53-3.87,4.34-6.08.81-2.19,1.21-4.45,1.21-6.76,0-5.08-1.39-9.07-4.16-11.97-2.78-2.89-6.19-4.51-10.23-4.86-4.05-.34-8.15.99-12.32,3.99-9.71,7.17-19.84,12.78-30.36,16.82-10.53,4.05-21.69,6.08-33.48,6.08-13.65,0-26.49-2.72-38.51-8.16-12.03-5.43-22.61-13.01-31.74-22.72-9.14-9.71-16.25-20.99-21.34-33.83-5.09-12.84-7.63-26.65-7.63-41.46s2.54-28.28,7.63-41.11c5.08-12.84,12.2-24.11,21.34-33.83,9.14-9.71,19.71-17.35,31.74-22.9,12.02-5.55,24.86-8.33,38.51-8.33,15.03,0,27.11,1.97,36.26,5.9,9.13,3.94,17.98,9.6,26.54,17,3.93,3.24,8.16,4.74,12.66,4.51,4.51-.23,8.33-1.85,11.45-4.86,3.12-3,4.68-6.71,4.68-11.1,0-2.08-.17-3.87-.52-5.38-.35-1.5-1.04-3-2.08-4.51-1.04-1.5-2.49-2.95-4.34-4.33-12.96-10.64-25.85-18.27-38.68-22.9-12.84-4.62-28.16-6.94-45.97-6.94-18.97,0-36.55,3.59-52.74,10.75-16.19,7.17-30.36,17.06-42.5,29.66-12.14,12.61-21.63,27.29-28.45,44.06-6.82,16.77-10.23,34.87-10.23,54.3s3.41,37.94,10.23,54.82c6.82,16.89,16.31,31.63,28.45,44.23,12.15,12.61,26.37,22.44,42.68,29.49,16.3,7.06,33.83,10.58,52.56,10.58,15.73,0,30.76-2.49,45.1-7.46M1356.74,555.3c3.35-3.47,5.03-7.74,5.03-12.83v-189.43l151.27,201.23c1.62,2.08,3.76,3.64,6.42,4.68,2.65,1.04,5.14,1.56,7.46,1.56,5.32,0,9.6-1.74,12.84-5.21,3.24-3.47,4.86-7.74,4.86-12.83v-234.88c0-5.31-1.62-9.65-4.86-13.01-3.24-3.35-7.52-5.03-12.84-5.03s-9.36,1.68-12.83,5.03c-3.47,3.36-5.21,7.7-5.21,13.01v189.78l-151.27-201.23c-3.7-4.39-8.33-6.59-13.88-6.59-5.09,0-9.31,1.68-12.66,5.03-3.35,3.36-5.03,7.7-5.03,13.01v234.88c0,5.09,1.67,9.36,5.03,12.83s7.57,5.21,12.66,5.21,9.66-1.74,13.01-5.21M1224.07,555.3c3.35-3.47,5.03-7.74,5.03-12.83v-234.88c0-5.31-1.68-9.65-5.03-13.01-3.35-3.35-7.69-5.03-13.01-5.03s-9.37,1.68-12.84,5.03c-3.47,3.36-5.2,7.7-5.2,13.01v234.88c0,5.09,1.73,9.36,5.2,12.83s7.75,5.21,12.84,5.21,9.66-1.74,13.01-5.21M1047.59,559.12c11.68-3.24,22.09-8.15,31.22-14.75,9.14-6.59,16.42-14.75,21.86-24.46,5.43-9.71,8.15-21.16,8.15-34.34,0-22.9-7.69-41.34-23.07-55.34-15.38-13.99-36.83-22.38-64.36-25.15-18.04-1.85-31.87-5.08-41.46-9.71-9.6-4.62-16.19-10.12-19.78-16.48s-5.38-13.01-5.38-19.95c0-13.64,5.78-23.76,17.35-30.36,11.56-6.59,25.9-9.77,43.02-9.54,9.71,0,18.15,1.33,25.32,3.99,7.17,2.66,13.41,6.31,18.73,10.93,5.32,4.63,9.83,10.29,13.53,17,2.54,4.4,6.36,7.4,11.45,9.02,5.09,1.62,9.83,1.04,14.23-1.73,3.93-2.54,6.19-6.08,6.76-10.58.58-4.51-.75-9.31-3.99-14.4-5.78-9.48-12.61-17.69-20.47-24.63-7.87-6.94-17.06-12.37-27.58-16.3-10.52-3.93-22.85-5.9-36.95-5.9-18.04,0-34.4,2.78-49.09,8.33-14.69,5.55-26.31,13.65-34.87,24.29-8.56,10.64-12.83,23.59-12.83,38.86,0,20.82,8.2,38.29,24.63,52.39,16.42,14.12,38.97,22.55,67.66,25.33,21.97,2.31,37.76,8.33,47.36,18.04,9.59,9.71,14.4,20.71,14.4,32.96,0,9.71-2.9,17.87-8.68,24.46-5.78,6.59-13.35,11.62-22.72,15.09-9.36,3.47-19.6,5.21-30.71,5.21-9.95,0-19.43-1.5-28.45-4.51-9.02-3-16.71-6.94-23.07-11.8-6.37-4.86-10.93-10.18-13.71-15.96-2.08-4.39-5.15-7.69-9.19-9.89-4.05-2.2-8.16-2.83-12.32-1.91-5.78,1.17-9.88,3.82-12.32,7.98-2.43,4.16-2.49,8.67-.17,13.53,4.62,10.87,11.91,20.47,21.86,28.79,9.94,8.33,21.62,14.8,35.04,19.43,13.41,4.62,27.52,6.94,42.33,6.94,12.49,0,24.58-1.62,36.26-4.86M667.06,523.21c-12.61-5.43-23.48-12.95-32.61-22.55-9.14-9.59-16.25-20.87-21.34-33.83-5.09-12.95-7.63-26.94-7.63-41.98s2.54-29.03,7.63-41.98c5.08-12.95,12.2-24.23,21.34-33.83,9.14-9.6,20.01-17.06,32.61-22.38,12.61-5.32,26.43-7.98,41.46-7.98s28.85,2.66,41.46,7.98c12.6,5.32,23.53,12.78,32.79,22.38,9.25,9.6,16.36,20.87,21.34,33.83,4.97,12.96,7.46,26.95,7.46,41.98s-2.49,29.03-7.46,41.98c-4.98,12.96-12.09,24.23-21.34,33.83-9.25,9.6-20.19,17.12-32.79,22.55-12.61,5.43-26.43,8.15-41.46,8.15s-28.86-2.72-41.46-8.15M764.2,553.74c16.77-6.82,31.28-16.42,43.55-28.8,12.26-12.37,21.74-27.06,28.45-44.06,6.71-17,10.06-35.67,10.06-56.03s-3.35-38.97-10.06-55.86c-6.71-16.88-16.19-31.51-28.45-43.89-12.26-12.37-26.78-21.97-43.55-28.79-16.77-6.82-35.33-10.23-55.68-10.23s-38.98,3.41-55.86,10.23c-16.89,6.82-31.4,16.43-43.54,28.79-12.15,12.38-21.57,27.01-28.27,43.89-6.71,16.89-10.06,35.51-10.06,55.86s3.35,39.03,10.06,56.03c6.71,17,16.13,31.69,28.27,44.06,12.14,12.38,26.65,21.98,43.54,28.8,16.88,6.82,35.5,10.23,55.86,10.23s38.91-3.42,55.68-10.23M509.72,560.51c5.08,0,9.37-1.74,12.84-5.21s5.2-7.74,5.2-12.83-1.73-9.36-5.2-12.84c-3.47-3.47-7.75-5.2-12.84-5.2h-125.59v-216.84c0-5.08-1.73-9.36-5.2-12.83-3.47-3.47-7.75-5.2-12.84-5.2s-9.02,1.73-12.49,5.2c-3.47,3.47-5.2,7.75-5.2,12.83v234.88c0,5.09,1.67,9.36,5.03,12.83,3.35,3.47,7.57,5.21,12.66,5.21h143.63ZM224.37,556.35c14.23-5.08,27.58-12.6,40.07-22.55,1.85-1.85,3.24-3.87,4.16-6.08.92-2.19,1.39-4.45,1.39-6.76,0-5.08-1.39-9.07-4.16-11.97-2.78-2.89-6.19-4.51-10.23-4.86-4.05-.34-8.15.99-12.32,3.99-9.71,7.17-19.84,12.78-30.36,16.82-10.53,4.05-21.69,6.08-33.48,6.08-13.65,0-26.49-2.72-38.51-8.16-12.03-5.43-22.61-13.01-31.74-22.72-9.14-9.71-16.25-20.99-21.34-33.83-5.09-12.84-7.63-26.65-7.63-41.46s2.54-28.28,7.63-41.11c5.08-12.84,12.19-24.11,21.34-33.83,9.13-9.71,19.71-17.35,31.74-22.9,12.02-5.55,24.86-8.33,38.51-8.33,15.03,0,27.11,1.97,36.25,5.9,9.14,3.94,17.98,9.6,26.54,17,4.16,3.24,8.44,4.68,12.84,4.33,4.39-.34,8.15-1.96,11.27-4.86,3.13-2.89,4.69-6.53,4.69-10.93,0-2.08-.17-3.87-.52-5.38-.35-1.5-1.04-3-2.09-4.51-1.04-1.5-2.48-2.95-4.33-4.33-12.96-10.64-25.85-18.27-38.69-22.9-12.83-4.62-28.16-6.94-45.97-6.94-18.97,0-36.55,3.59-52.74,10.75-16.19,7.17-30.36,17.06-42.5,29.66-12.15,12.61-21.63,27.29-28.45,44.06-6.83,16.77-10.23,34.87-10.23,54.3s3.41,37.94,10.23,54.82c6.82,16.89,16.3,31.63,28.45,44.23,12.14,12.61,26.37,22.44,42.67,29.49,16.31,7.06,33.83,10.58,52.57,10.58,15.73,0,30.7-2.55,44.93-7.63"/>
  </g>
</svg>