<?xml version="1.0" encoding="UTF-8"?>
<svg id="Icons" xmlns="http://www.w3.org/2000/svg" version="1.1" viewBox="0 0 1000 1000">
  <!-- Generator: Adobe Illustrator 30.1.0, SVG Export Plug-In . SVG Version: 2.1.1 Build 136)  -->
  <defs>
    <style>
      .st0 {
        fill: #52B5CB;
      }
    </style>
  </defs>
  <path class="st0" d="M826.62,780.74c-29.82-7.42-51.38-12.65-64.69-15.68-53.76-12.24-108.55-20.43-164.35-24.52-22.66-1.68-48.86-3.29-78.65-4.82-2.56-.15-4.64-2.01-5.08-4.54-5.23-30.08-6.58-144.87-6.58-144.87,0-1.72,57.6-55.52,62.49-57.34,22.81-8.44,49.81-17.21,51.2-21.46.55-1.97-1.13-3.87-3.18-3.54l-37.53,5.92c-.99.15-1.65-.99-.99-1.72l33.08-38.44c2.01-2.31,2.41-5.6,1.1-8.33l-.77-1.54c-1.35-2.63-4.86-3.18-6.91-1.06l-96.19,99.77c-1.5,1.57-4.17.55-4.24-1.65-.84-28.69-1.13-52.88-.84-72.65.18-10.23.98-15.28,7.49-23.1,7.93-9.54,20.5-25.44,37.71-47.73,3.84-4.93,6.29-10.38,7.35-16.33.99-5.41-4.24-9.87-8.15-6.94-.73.55-1.98,1.94-3.69,4.17-18.42,23.72-31.43,40.09-38.99,49.08-.66.81-1.98.33-1.94-.69.44-18.9.44-42.4-.04-70.58-.07-4.79-1.46-8.73-4.2-11.77-1.9-2.08-5.33-1.24-6.07,1.46-2.08,7.79-3.18,16.34-3.29,25.62-.69,54.53-1.1,94.15-1.13,118.89,0,1.13-1.35,1.68-2.15.91-28.54-27.27-53.58-57.67-82.67-92.32-2.27-2.7-6.65-.95-6.43,2.56.51,8.92,4.1,17.32,10.78,25.25,13.6,16.12,23.35,27.81,29.24,35.05.66.81.07,1.97-.95,1.97-15.24-.33-27.59-.4-37.02-.22-2.23.04-3.87.4-5.01,1.02-2.56,1.46-2.7,5.15-.29,7.05,12.21,9.76,37.9,10.09,53.4,10.75,11.4.51,37.61,34.9,37.68,39.87.33,24.56-1.72,106.24-1.75,107.74-.18,24.38-1.75,46.89-4.64,67.5-.99,7.27-2.92,13.6-5.74,18.93-1.32,2.48-3.84,4.09-6.65,4.2-40.89,1.72-65.75,2.81-74.48,3.29-17.29.95-44.62,4.06-82.01,9.35-30.81,4.35-81.13,14.91-151.01,31.72-2.48.59-3.73,3.44-2.45,5.67l3.22,5.56c1.2,2.08,3.58,3.18,5.96,2.7,14.8-2.92,31.87-6.43,51.2-10.56,81.24-17.33,162.96-26.46,245.15-27.37.73,0,1.28.58,1.24,1.28-.04.91-.55,1.9-1.46,3.03-22.19,26.02-55.92,50-91.62,52.04-8.66.48-23.9,1.46-45.76,2.89-40.35,2.67-77.59,15.5-113.92,32.16-1.87.88-1.97,3.44-.22,4.46l8.73,5.04c2.34,1.35,5.19,1.54,7.67.44,41.04-17.76,82.71-28.21,127.4-27.48,1.35.04,2.05.73,2.05,2.08-.04.84-.33,1.42-.95,1.83-21.6,14-40.97,26.61-53.03,43.89-9.13,13.08-14.65,20.61-16.56,22.55-1.54,1.58-1.17,4.13.73,5.23l4.31,2.48c2.3,1.31,5.23.77,6.87-1.28,13.67-16.96,21.93-26.68,24.78-29.13,33.15-28.54,57.42-48.53,94.62-59.75.51-.15.99.33.84.88-4.17,14.14-9.5,26.57-15.97,37.28-10.05,16.56-26.97,28.14-34.9,45.65-3.58,7.93-6.73,17.65-9.43,29.24-.4,1.68.37,3.44,1.83,4.28l6.25,3.62c1.65.95,3.77.19,4.42-1.61l9.83-26.9c1.75-4.71,4.27-9.06,7.49-12.9,7.71-9.8,19.59-22.48,26.38-34.46,7.35-12.94,13.01-27.19,16.96-42.8,4.09-16.15,17.36-23.32,33.73-36.44.44-.37.84-.77,1.21-1.21l26.9-31.58c1.21-1.39,3.47-.69,3.69,1.13,2.19,18.46,3.65,71.01-11.51,84.28-9.98,8.73-19.66,17.33-29.09,25.69-28.87,25.69-25.69,55.73-25.84,91.15,0,3,2.15,5.52,5.08,6.03,2.96.47,5.81-1.25,6.76-4.06,4.16-12.35,2.34-21.78,3.58-41.52,1.39-21.75,10.71-35.38,25.58-47.44,11.4-9.25,20.03-15.9,25.88-19.99.91-.66,2.15-.26,2.52.8,4.42,12.28,9.39,21.96,14.95,29.06,11.88,15.17,26.9,30.96,30.55,50.54,2.63,14.07,3.65,23.98,3.04,29.75-.22,2.05,1.42,3.8,3.47,3.73l5.66-.22c2.96-.11,5.19-2.63,5.01-5.59-1.42-21.31-3.65-35.6-6.69-42.87-5.23-12.57-10.34-21.49-15.38-26.71-24.52-25.44-33.55-55.96-27.08-91.59.4-2.23,3-3.22,4.79-1.83,17.14,13.56,33.33,25.29,48.61,35.19,6,3.91,11.15,9.83,13.41,16.05,9.03,24.88,19.73,50.07,32.2,75.62,3.07,6.32,6.73,12.54,11,18.64,1.94,2.78,5.56,3.8,8.66,2.45l.8-.37c2.89-1.28,3.91-4.86,2.16-7.49-5.77-8.59-11.18-18.79-16.23-30.56-7.49-17.5-15.17-36.22-23.03-56.06-.22-.58.4-1.13.95-.84,25,13.27,40.53,21.38,46.56,24.34,22.55,10.93,37.31,24.38,52.59,41.15,1.83,2.01,4.75,2.59,7.24,1.42l.33-.15c2.3-1.1,3.14-3.95,1.79-6.1-12.13-19.63-22.92-35.31-41.33-44.44-20.94-10.35-39.14-18.93-54.57-25.73-3.25-1.42-6.58-3.77-9.94-6.94-.8-.77-.25-2.08.84-2.08,56.32.55,111.29,11.4,164.87,32.56,3.1,1.24,6.65.33,8.81-2.19l4.31-4.97c1.46-1.72.77-4.38-1.39-5.12-19.81-6.94-34.79-11.92-44.95-14.95-46.45-13.92-92.76-21.71-138.92-23.35-16.23-.55-23.75-3.84-37.02-12.68-14.91-9.98-26.28-22.88-34.13-38.7-.37-.73.18-1.54.99-1.5,33.37,2.08,62.53,4.1,87.56,6.03,71.08,5.48,141.14,17.47,210.22,35.92,2.38.66,4.86-.66,5.7-2.96l3-8.4c.77-2.23-.51-4.61-2.78-5.19"/>
  <path class="st0" d="M244.75,519.63l252.39,121.96,252.39-121.96V161.58l-247.97,119.83c-2.79,1.35-6.04,1.35-8.83,0l-247.97-119.83v358.05ZM497.14,663.02c-1.51,0-3.02-.34-4.42-1.01l-262.55-126.87c-3.51-1.69-5.74-5.25-5.74-9.14V145.39c0-3.49,1.8-6.74,4.76-8.6,2.96-1.86,6.67-2.06,9.82-.54l258.13,124.73,258.13-124.73c3.15-1.52,6.86-1.32,9.82.54,2.96,1.86,4.76,5.11,4.76,8.6v380.6c0,3.9-2.23,7.45-5.74,9.14l-262.55,126.87c-1.39.67-2.9,1.01-4.42,1.01"/>
  <path class="st0" d="M497.14,671.23c-.84,0-1.68-.1-2.5-.31l-332.56-84.33c-4.5-1.14-7.66-5.2-7.66-9.85V196.14c0-5.61,4.55-10.15,10.15-10.15s10.16,4.55,10.16,10.15v372.7l322.4,81.75,322.4-81.75V196.14c0-5.61,4.54-10.15,10.15-10.15s10.15,4.55,10.15,10.15v380.6c0,4.65-3.15,8.7-7.66,9.85l-332.56,84.33c-.82.21-1.66.31-2.5.31"/>
  <path class="st0" d="M497.14,684.91c-.4,0-.79-.02-1.18-.07l-402.57-47.26c-5.12-.6-8.97-4.94-8.97-10.09V246.89c0-5.61,4.55-10.15,10.15-10.15s10.16,4.55,10.16,10.15v371.57l392.41,46.07,392.42-46.07V246.89c0-5.61,4.54-10.15,10.15-10.15s10.15,4.55,10.15,10.15v380.6c0,5.15-3.86,9.49-8.97,10.09l-402.57,47.26c-.39.05-.79.07-1.18.07"/>
  <path class="st0" d="M497.14,612.27c-5.61,0-10.15-4.55-10.15-10.15v-287.79c0-5.61,4.55-10.15,10.15-10.15s10.15,4.55,10.15,10.15v287.79c0,5.61-4.55,10.15-10.15,10.15"/>
</svg>