<?xml version="1.0" encoding="UTF-8"?>
<svg id="b" data-name="Icons" xmlns="http://www.w3.org/2000/svg" viewBox="0 0 3000 638.3">
  <path d="M2299.19,441.84c1.24-.57,2.47-1.15,3.68-1.78,13.27-6.87,23.63-16.36,31.07-28.5,7.44-12.13,11.16-25.98,11.16-41.54,0-16.71-3.72-31.35-11.16-43.95-7.44-12.59-17.8-22.49-31.07-29.7-13.28-7.21-28.5-10.81-45.66-10.81h-61.8c-5.04,0-9.27,1.66-12.7,4.98-3.43,3.32-5.15,7.61-5.15,12.88v232.44c0,5.04,1.72,9.27,5.15,12.7s7.66,5.15,12.7,5.15,9.55-1.72,12.87-5.15c3.32-3.43,4.98-7.66,4.98-12.7v-85.49h43.95c2.14,0,4.24-.05,6.32-.16l58.92,94.92c1.83,2.98,4.06,5.15,6.69,6.52,2.63,1.37,5.55,2.06,8.75,2.06,7.32,0,12.47-2.92,15.45-8.76,2.97-5.84,2.4-12.07-1.72-18.71l-52.43-84.4ZM2213.26,417.41v-98.88h43.95c10.53,0,19.8,2.18,27.81,6.52,8.01,4.35,14.3,10.42,18.88,18.2,4.57,7.79,6.87,16.71,6.87,26.78,0,9.16-2.29,17.34-6.87,24.55-4.58,7.21-10.88,12.82-18.88,16.82-8.01,4.01-17.28,6.01-27.81,6.01h-43.95Z"/>
  <path d="M2941.66,290.54c-3.21-3.32-7.44-4.98-12.7-4.98s-9.27,1.66-12.7,4.98c-3.43,3.32-5.15,7.61-5.15,12.88v98.54h-159.31v-98.54c0-5.26-1.66-9.55-4.98-12.88-3.32-3.32-7.61-4.98-12.87-4.98s-9.27,1.66-12.7,4.98c-3.43,3.32-5.15,7.61-5.15,12.88v232.44c0,5.04,1.72,9.27,5.15,12.7s7.66,5.15,12.7,5.15,9.55-1.72,12.87-5.15c3.32-3.43,4.98-7.66,4.98-12.7v-102.31h159.31v102.31c0,5.04,1.72,9.27,5.15,12.7,3.43,3.43,7.66,5.15,12.7,5.15s9.5-1.72,12.7-5.15c3.2-3.43,4.81-7.66,4.81-12.7v-232.44c0-5.26-1.61-9.55-4.81-12.88Z"/>
  <path d="M2477.2,345.31c9.04-9.61,19.52-17.17,31.41-22.66,11.9-5.49,24.6-8.24,38.11-8.24,14.88,0,26.83,1.95,35.88,5.84,9.04,3.89,17.8,9.5,26.26,16.82,4.12,3.21,8.36,4.64,12.7,4.29,4.35-.34,8.07-1.94,11.16-4.81,3.09-2.86,4.64-6.46,4.64-10.81,0-2.06-.17-3.83-.52-5.32-.34-1.48-1.03-2.97-2.06-4.46-1.03-1.48-2.46-2.92-4.29-4.29-12.82-10.53-25.58-18.08-38.28-22.66-12.7-4.57-27.86-6.87-45.49-6.87-18.77,0-36.17,3.55-52.19,10.64-16.02,7.1-30.04,16.89-42.06,29.35-12.02,12.48-21.4,27.01-28.15,43.6-6.75,16.6-10.13,34.5-10.13,53.73s3.38,37.54,10.13,54.25c6.75,16.71,16.14,31.3,28.15,43.77,12.02,12.48,26.09,22.21,42.23,29.18,16.14,6.98,33.47,10.47,52.01,10.47,15.57,0,30.38-2.52,44.46-7.55s27.29-12.47,39.65-22.32c1.83-1.83,3.21-3.83,4.12-6.01.91-2.17,1.37-4.4,1.37-6.7,0-5.03-1.37-8.98-4.12-11.84-2.75-2.86-6.13-4.46-10.13-4.81s-8.07.98-12.19,3.95c-9.61,7.1-19.62,12.65-30.04,16.65-10.42,4.01-21.46,6.01-33.13,6.01-13.51,0-26.21-2.68-38.11-8.07-11.9-5.38-22.37-12.88-31.41-22.49-9.04-9.61-16.08-20.77-21.11-33.47s-7.55-26.37-7.55-41.03,2.52-27.98,7.55-40.68c5.03-12.7,12.07-23.86,21.11-33.47Z"/>
  <path d="M2054.71,320.76c-12.13-12.24-26.5-21.74-43.09-28.5-16.6-6.75-34.96-10.13-55.1-10.13s-38.57,3.38-55.28,10.13c-16.71,6.76-31.07,16.25-43.09,28.5-12.02,12.25-21.35,26.73-27.98,43.43-6.64,16.71-9.96,35.14-9.96,55.28s3.32,38.62,9.96,55.45c6.63,16.82,15.96,31.36,27.98,43.6,12.02,12.25,26.37,21.75,43.09,28.5,16.71,6.75,35.13,10.13,55.28,10.13s38.51-3.38,55.1-10.13c16.59-6.75,30.95-16.25,43.09-28.5,12.13-12.24,21.51-26.78,28.15-43.6,6.63-16.82,9.96-35.3,9.96-55.45s-3.32-38.56-9.96-55.28c-6.64-16.71-16.03-31.18-28.15-43.43ZM2051.11,461.01c-4.92,12.82-11.96,23.98-21.11,33.47-9.16,9.5-19.98,16.94-32.44,22.32-12.48,5.38-26.16,8.07-41.03,8.07s-28.56-2.69-41.03-8.07c-12.48-5.38-23.24-12.81-32.27-22.32-9.04-9.5-16.08-20.65-21.11-33.47-5.04-12.81-7.55-26.66-7.55-41.54s2.51-28.72,7.55-41.54c5.03-12.81,12.07-23.97,21.11-33.47,9.04-9.5,19.8-16.88,32.27-22.14,12.47-5.26,26.15-7.9,41.03-7.9s28.55,2.64,41.03,7.9c12.47,5.27,23.28,12.65,32.44,22.14,9.15,9.5,16.19,20.66,21.11,33.47,4.92,12.82,7.38,26.67,7.38,41.54s-2.47,28.73-7.38,41.54Z"/>
  <path d="M1714.06,296.9c-13.28-7.55-28.5-11.33-45.66-11.33h-68.67c-5.04,0-9.27,1.66-12.7,4.98-3.43,3.32-5.15,7.61-5.15,12.88v232.44c0,5.04,1.72,9.27,5.15,12.7s7.66,5.15,12.7,5.15,9.55-1.72,12.88-5.15c3.32-3.43,4.98-7.66,4.98-12.7v-75.19h50.81c17.17,0,32.38-3.66,45.66-10.99,13.27-7.32,23.63-17.51,31.07-30.56,7.44-13.05,11.16-27.92,11.16-44.63s-3.72-32.79-11.16-46.18c-7.44-13.39-17.8-23.86-31.07-31.41ZM1715.09,401.96c-4.58,8.01-10.88,14.31-18.88,18.88-8.01,4.58-17.28,6.87-27.81,6.87h-50.81v-109.18h50.81c10.53,0,19.8,2.4,27.81,7.21,8.01,4.81,14.3,11.39,18.88,19.74,4.57,8.36,6.87,18.02,6.87,29.01,0,10.3-2.29,19.46-6.87,27.47Z"/>
  <path d="M1102.53,285.57c-5.04,0-9.27,1.66-12.7,4.98-3.43,3.32-5.15,7.61-5.15,12.88v187.8l-149.69-199.13c-3.67-4.35-8.24-6.52-13.73-6.52-5.04,0-9.22,1.66-12.53,4.98-3.32,3.32-4.98,7.61-4.98,12.88v232.44c0,5.04,1.65,9.27,4.98,12.7,3.32,3.43,7.49,5.15,12.53,5.15s9.55-1.72,12.87-5.15c3.32-3.43,4.98-7.66,4.98-12.7v-187.46l149.69,199.13c1.6,2.06,3.71,3.6,6.35,4.64,2.63,1.03,5.09,1.55,7.38,1.55,5.26,0,9.5-1.72,12.7-5.15,3.2-3.43,4.81-7.66,4.81-12.7v-232.44c0-5.26-1.61-9.55-4.81-12.88-3.21-3.32-7.44-4.98-12.7-4.98Z"/>
  <path d="M1390.99,285.57h-183.68c-4.81,0-8.75,1.54-11.84,4.64-3.09,3.09-4.63,7.04-4.63,11.84s1.55,8.75,4.63,11.84c3.09,3.09,7.04,4.64,11.84,4.64h74.16v217.33c0,5.04,1.72,9.27,5.15,12.7,3.43,3.43,7.67,5.15,12.7,5.15s9.27-1.72,12.7-5.15c3.43-3.43,5.15-7.66,5.15-12.7v-217.33h73.82c4.81,0,8.75-1.55,11.84-4.64,3.09-3.09,4.63-7.04,4.63-11.84s-1.54-8.75-4.63-11.84c-3.09-3.09-7.04-4.64-11.84-4.64Z"/>
  <path d="M780.9,320.76c-12.13-12.24-26.5-21.74-43.09-28.5-16.6-6.75-34.96-10.13-55.1-10.13s-38.57,3.38-55.28,10.13c-16.71,6.76-31.07,16.25-43.09,28.5-12.02,12.25-21.35,26.73-27.98,43.43-6.64,16.71-9.96,35.14-9.96,55.28s3.32,38.62,9.96,55.45c6.63,16.82,15.96,31.36,27.98,43.6,12.02,12.25,26.37,21.75,43.09,28.5,16.71,6.75,35.13,10.13,55.28,10.13s38.51-3.38,55.1-10.13c16.59-6.75,30.95-16.25,43.09-28.5,12.13-12.24,21.51-26.78,28.15-43.6,6.63-16.82,9.96-35.3,9.96-55.45s-3.32-38.56-9.96-55.28c-6.64-16.71-16.03-31.18-28.15-43.43ZM777.29,461.01c-4.92,12.82-11.96,23.98-21.11,33.47-9.16,9.5-19.98,16.94-32.44,22.32-12.48,5.38-26.16,8.07-41.03,8.07s-28.56-2.69-41.03-8.07c-12.48-5.38-23.24-12.81-32.27-22.32-9.04-9.5-16.08-20.65-21.11-33.47-5.04-12.81-7.55-26.66-7.55-41.54s2.51-28.72,7.55-41.54c5.03-12.81,12.07-23.97,21.11-33.47,9.04-9.5,19.8-16.88,32.27-22.14,12.47-5.26,26.15-7.9,41.03-7.9s28.55,2.64,41.03,7.9c12.47,5.27,23.28,12.65,32.44,22.14,9.15,9.5,16.19,20.66,21.11,33.47,4.92,12.82,7.38,26.67,7.38,41.54s-2.47,28.73-7.38,41.54Z"/>
  <path d="M431.39,441.84c1.24-.57,2.47-1.15,3.68-1.78,13.27-6.87,23.63-16.36,31.07-28.5,7.44-12.13,11.16-25.98,11.16-41.54,0-16.71-3.72-31.35-11.16-43.95-7.44-12.59-17.8-22.49-31.07-29.7-13.28-7.21-28.5-10.81-45.66-10.81h-61.8c-5.04,0-9.27,1.66-12.7,4.98-3.43,3.32-5.15,7.61-5.15,12.88v232.44c0,5.04,1.72,9.27,5.15,12.7,3.43,3.43,7.66,5.15,12.7,5.15s9.55-1.72,12.87-5.15c3.32-3.43,4.98-7.66,4.98-12.7v-85.49h43.95c2.14,0,4.24-.05,6.32-.16l58.92,94.92c1.83,2.98,4.06,5.15,6.69,6.52,2.63,1.37,5.55,2.06,8.75,2.06,7.32,0,12.47-2.92,15.45-8.76,2.97-5.84,2.4-12.07-1.72-18.71l-52.43-84.4ZM345.45,417.41v-98.88h43.95c10.53,0,19.8,2.18,27.81,6.52,8.01,4.35,14.3,10.42,18.88,18.2,4.57,7.79,6.87,16.71,6.87,26.78,0,9.16-2.29,17.34-6.87,24.55-4.58,7.21-10.88,12.82-18.88,16.82-8.01,4.01-17.28,6.01-27.81,6.01h-43.95Z"/>
  <path d="M218.56,285.57H63.37c-5.04,0-9.27,1.66-12.7,4.98-3.43,3.32-5.15,7.61-5.15,12.88v232.44c0,5.04,1.72,9.27,5.15,12.7,3.43,3.43,7.66,5.15,12.7,5.15s9.27-1.72,12.7-5.15c3.43-3.43,5.15-7.66,5.15-12.7v-100.94h98.54c5.26,0,9.5-1.54,12.7-4.63,3.2-3.09,4.81-7.04,4.81-11.84s-1.61-8.76-4.81-11.84c-3.21-3.09-7.44-4.64-12.7-4.64h-98.54v-83.43h137.33c5.26,0,9.5-1.48,12.7-4.46,3.2-2.97,4.81-6.87,4.81-11.67s-1.61-9.1-4.81-12.19c-3.21-3.09-7.44-4.64-12.7-4.64Z"/>
  <path d="M1603.91,182.37c1.44-1.3,2.77-2.66,4.05-4.06,1.1,1.55,2.34,2.99,3.72,4.31,3.63,3.45,8.02,6.1,13.18,7.95,5.16,1.84,10.68,2.76,16.55,2.76,6.29,0,11.98-.64,17.06-1.91,5.09-1.28,9.62-2.95,13.59-5.03,3.97-2.08,7.42-4.44,10.37-7.09,2.94-2.65,5.45-5.35,7.53-8.1,2.07-2.75,3.75-5.47,5.02-8.15,1.26-2.68,2.25-5.06,2.95-7.14.57-1.81.28-3.37-.87-4.68-1.15-1.3-2.64-2.16-4.45-2.57-1.81-.4-3.69-.21-5.63.56-1.94.77-3.41,2.3-4.39,4.58-1.31,3.15-2.99,6.27-5.05,9.35-2.05,3.08-4.53,5.86-7.44,8.35-2.91,2.48-6.3,4.48-10.17,5.98-3.87,1.51-8.32,2.27-13.35,2.27-3.36,0-6.25-.34-8.69-1.01-2.44-.67-4.53-1.57-6.25-2.71-1.73-1.14-3.15-2.5-4.25-4.07-1.11-1.58-1.92-3.23-2.45-4.99,6.46-1.47,12.31-3.63,17.55-6.48,5.23-2.85,9.78-6.07,13.64-9.66,3.86-3.58,6.96-7.39,9.3-11.41,2.35-4.02,3.86-7.94,4.53-11.77.54-3.08.52-5.9-.08-8.45-.6-2.55-1.74-4.74-3.43-6.59-1.69-1.84-3.89-3.27-6.61-4.28-2.71-1-5.87-1.5-9.48-1.5-4.95,0-9.97,1.15-15.07,3.47-5.1,2.31-9.86,5.51-14.27,9.61s-8.24,8.93-11.49,14.54c-3.25,5.6-5.45,11.65-6.6,18.16-.67,3.82-.84,7.39-.53,10.72-.25.5-.5.99-.76,1.5-1.33,2.58-2.89,4.98-4.66,7.19s-3.74,4.06-5.88,5.53c-2.15,1.47-4.52,2.21-7.12,2.21-1.68,0-2.88-.41-3.62-1.21-.74-.8-1.22-1.74-1.46-2.82-.23-1.07-.3-2.13-.19-3.17.1-1.04.19-1.79.27-2.26l7.52-42.65c.41-2.35.52-4.76.33-7.24-.19-2.48-.91-4.72-2.14-6.74s-3.12-3.65-5.66-4.93c-2.54-1.27-5.95-1.91-10.22-1.91-3.19,0-6.23.51-9.14,1.56-2.91,1.04-5.72,2.48-8.43,4.33-2.71,1.84-5.32,4-7.81,6.48-2.49,2.49-4.88,5.17-7.14,8.05l11.92-67.59c.43-2.49-.43-4.61-2.58-6.39-2.16-1.77-5.38-2.66-9.65-2.66-.92,0-1.87.05-2.86.15-.98.1-1.91.25-2.78.45-.88.2-1.59.44-2.14.71s-.87.6-.93,1c-.06.34.03.65.27.95.24.3.46.71.67,1.21.21.5.37,1.19.52,2.06.14.87.08,2.05-.18,3.52l-21.8,123.62c-.34,1.94-.22,3.5.37,4.68.59,1.17,1.44,2.08,2.54,2.72,1.1.63,2.37,1.07,3.79,1.3,1.43.23,2.77.35,4.02.35,1.85,0,3.3-.28,4.37-.85,1.06-.57,1.9-1.28,2.51-2.11.61-.84,1.02-1.78,1.25-2.82.23-1.04.43-2.06.6-3.07l5.31-30.08c1.22-4.09,3.17-8.16,5.86-12.22,2.68-4.06,5.61-7.7,8.78-10.92,3.17-3.21,6.26-5.83,9.3-7.84,3.03-2.01,5.47-3.02,7.32-3.02,1.26,0,2.18.32,2.79.95.6.64,1,1.5,1.18,2.57.19,1.07.2,2.31.03,3.72-.16,1.41-.38,2.92-.67,4.53l-7.37,41.85c-.46,2.62-.42,5.09.13,7.44s1.61,4.39,3.19,6.13c1.58,1.74,3.6,3.14,6.06,4.18,2.46,1.04,5.4,1.56,8.84,1.56,5.53,0,10.53-1.04,15.01-3.12,4.47-2.08,8.45-4.69,11.95-7.84ZM1623.99,153.81c.02-.6.09-1.21.19-1.81.16-1.41.52-3.17,1.06-5.28.54-2.11,1.27-4.34,2.18-6.69.92-2.35,1.98-4.68,3.19-6.99,1.2-2.31,2.57-4.39,4.11-6.24,1.54-1.84,3.23-3.33,5.07-4.47,1.83-1.14,3.8-1.71,5.89-1.71,1.68,0,2.88.63,3.63,1.91.74,1.27.91,3.05.51,5.33-.54,3.09-1.57,6.06-3.08,8.91-1.51,2.85-3.4,5.48-5.67,7.9-2.27,2.41-4.87,4.56-7.8,6.43-2.93,1.88-6.09,3.42-9.49,4.63.12-.67.19-1.31.21-1.91Z"/>
  <path d="M1512.71,58.85c1.37-.67,2.57-1.52,3.59-2.56,1.02-1.04,1.86-2.21,2.51-3.52.65-1.3,1.08-2.56,1.3-3.77.14-.8.2-1.61.17-2.42-.03-.8-.13-1.52-.31-2.16-.18-.63-.42-1.17-.72-1.61-.3-.43-.66-.65-1.08-.65-.17,0-.39.08-.67.25-.28.17-.67.36-1.17.56-.49.2-1.12.38-1.86.56-.74.16-1.65.25-2.75.25-1.26,0-3.63-.01-7.09-.05-3.47-.03-7.38-.08-11.73-.15-4.35-.07-8.72-.12-13.12-.15-4.39-.03-8.14-.05-11.24-.05-13.41,0-25.99,1.3-37.72,3.92-11.74,2.62-22.17,6.49-31.28,11.62s-16.65,11.48-22.6,19.06c-5.95,7.57-9.79,16.33-11.54,26.25-.96,5.43-1.01,10.48-.16,15.13.86,4.66,2.14,8.8,3.85,12.43,1.71,3.62,3.65,6.65,5.82,9.1,2.16,2.45,4.08,4.21,5.73,5.28.58.47,1.18.78,1.79.91.6.14,1.24.2,1.92.2,1.51,0,3.06-.38,4.67-1.15,1.6-.77,3.09-1.74,4.47-2.92,1.38-1.17,2.55-2.48,3.52-3.92.97-1.44,1.57-2.84,1.81-4.18.19-1.07.04-1.91-.44-2.51-.48-.6-1.46-.74-2.95-.41-1.44-1.34-2.86-2.88-4.28-4.63-1.41-1.74-2.62-3.76-3.65-6.04-1.03-2.27-1.72-4.84-2.1-7.69-.38-2.85-.25-6.05.37-9.61,1.41-7.98,4.27-14.7,8.58-20.17,4.32-5.47,9.59-9.91,15.81-13.33,6.21-3.42,13.16-5.99,20.85-7.7,7.68-1.71,15.54-2.83,23.6-3.36l-20.06,113.76c-.93,5.23-2.12,9.04-3.58,11.42-1.47,2.38-3.38,3.57-5.73,3.57-.67,0-1.26-.07-1.79-.21-.52-.13-.97-.22-1.34-.25-.37-.03-.68.03-.91.2-.24.17-.42.58-.54,1.26-.18,1.01.18,2.18,1.07,3.52.9,1.34,2.09,2.64,3.58,3.92,1.5,1.27,3.13,2.35,4.9,3.22s3.46,1.3,5.05,1.3c2.09,0,4.12-.47,6.09-1.41,1.97-.94,3.76-2.41,5.37-4.42,1.61-2.01,3.06-4.63,4.34-7.85,1.28-3.22,2.32-7.11,3.12-11.67l20.59-116.78c3.01.07,6.26.14,9.77.2,3.51.07,6.85.14,10.03.21,3.17.06,5.99.12,8.46.15,2.47.03,4.16.05,5.08.05,1.68,0,3.2-.34,4.58-1.01Z"/>
</svg>